HIERARCHY
ROOT Hips
{
	OFFSET 8.91173 92.52490 -21.95620
	CHANNELS 6 Xposition Yposition Zposition Zrotation Xrotation Yrotation
	JOINT Spine
	{
		OFFSET 0.00000 14.09320 -1.51142
		CHANNELS 3 Zrotation Xrotation Yrotation
		JOINT Spine1
		{
			OFFSET 0.00000 8.69660 0.00000
			CHANNELS 3 Zrotation Xrotation Yrotation
			JOINT Spine2
			{
				OFFSET 0.00000 8.69660 0.00000
				CHANNELS 3 Zrotation Xrotation Yrotation
				JOINT Spine3
				{
					OFFSET 0.00000 8.69660 0.00000
					CHANNELS 3 Zrotation Xrotation Yrotation
					JOINT Neck
					{
						OFFSET 0.00000 11.18130 1.11813
						CHANNELS 3 Zrotation Xrotation Yrotation
						JOINT Neck1
						{
							OFFSET 0.00000 5.70631 0.00000
							CHANNELS 3 Zrotation Xrotation Yrotation
							JOINT Head
							{
								OFFSET 0.00000 5.70631 0.00000
								CHANNELS 3 Zrotation Xrotation Yrotation
								End site
								{
									OFFSET 0.00000 9.71257 0.00000
								}
							}
						}
					}
					JOINT RightShoulder
					{
						OFFSET 0.00000 7.98668 5.19711
						CHANNELS 3 Zrotation Xrotation Yrotation
						JOINT RightArm
						{
							OFFSET 0.00000 18.31580 0.00000
							CHANNELS 3 Zrotation Xrotation Yrotation
							JOINT RightForeArm
							{
								OFFSET 0.00000 28.87420 0.00000
								CHANNELS 3 Zrotation Xrotation Yrotation
								JOINT RightHand
								{
									OFFSET 0.00000 23.87720 0.00000
									CHANNELS 3 Zrotation Xrotation Yrotation
									JOINT RightHandThumb1
									{
										OFFSET -2.41094 4.67063 3.47303
										CHANNELS 3 Zrotation Xrotation Yrotation
										JOINT RightHandThumb2
										{
											OFFSET 0.00000 3.95207 0.00000
											CHANNELS 3 Zrotation Xrotation Yrotation
											JOINT RightHandThumb3
											{
												OFFSET 0.00000 2.15568 0.00000
												CHANNELS 3 Zrotation Xrotation Yrotation
												End site
												{
													OFFSET 0.00000 1.91616 0.00000
												}
											}
										}
									}
									JOINT RightHandIndex1
									{
										OFFSET 0.00000 12.45500 2.51496
										CHANNELS 3 Zrotation Xrotation Yrotation
										JOINT RightHandIndex2
										{
											OFFSET 0.00000 4.79039 0.00000
											CHANNELS 3 Zrotation Xrotation Yrotation
											JOINT RightHandIndex3
											{
												OFFSET 0.00000 2.63472 0.00000
												CHANNELS 3 Zrotation Xrotation Yrotation
												End site
												{
													OFFSET 0.00000 1.91616 0.00000
												}
											}
										}
									}
									JOINT RightHandMiddle1
									{
										OFFSET 0.00000 12.45500 -0.07984
										CHANNELS 3 Zrotation Xrotation Yrotation
										JOINT RightHandMiddle2
										{
											OFFSET 0.00000 5.38919 0.00000
											CHANNELS 3 Zrotation Xrotation Yrotation
											JOINT RightHandMiddle3
											{
												OFFSET 0.00000 3.11376 0.00000
												CHANNELS 3 Zrotation Xrotation Yrotation
												End site
												{
													OFFSET 0.00000 2.03592 0.00000
												}
											}
										}
									}
									JOINT RightHandRing1
									{
										OFFSET 0.00000 11.07780 -2.67464
										CHANNELS 3 Zrotation Xrotation Yrotation
										JOINT RightHandRing2
										{
											OFFSET 0.00000 4.91015 0.00000
											CHANNELS 3 Zrotation Xrotation Yrotation
											JOINT RightHandRing3
											{
												OFFSET 0.00000 3.11376 0.00000
												CHANNELS 3 Zrotation Xrotation Yrotation
												End site
												{
													OFFSET 0.00000 2.03592 0.00000
												}
											}
										}
									}
									JOINT RightHandPinky1
									{
										OFFSET 0.00000 9.70055 -5.26943
										CHANNELS 3 Zrotation Xrotation Yrotation
										JOINT RightHandPinky2
										{
											OFFSET 0.00000 3.95207 0.00000
											CHANNELS 3 Zrotation Xrotation Yrotation
											JOINT RightHandPinky3
											{
												OFFSET 0.00000 2.15568 0.00000
												CHANNELS 3 Zrotation Xrotation Yrotation
												End site
												{
													OFFSET 0.00000 1.91616 0.00000
												}
											}
										}
									}
								}
							}
						}
					}
					JOINT LeftShoulder
					{
						OFFSET 0.00000 7.98668 5.19711
						CHANNELS 3 Zrotation Xrotation Yrotation
						JOINT LeftArm
						{
							OFFSET 0.00000 18.31580 0.00000
							CHANNELS 3 Zrotation Xrotation Yrotation
							JOINT LeftForeArm
							{
								OFFSET 0.00000 28.87420 0.00000
								CHANNELS 3 Zrotation Xrotation Yrotation
								JOINT LeftHand
								{
									OFFSET 0.00000 23.87720 0.00000
									CHANNELS 3 Zrotation Xrotation Yrotation
									JOINT LeftHandThumb1
									{
										OFFSET 2.41094 4.67063 3.47303
										CHANNELS 3 Zrotation Xrotation Yrotation
										JOINT LeftHandThumb2
										{
											OFFSET 0.00000 3.95207 0.00000
											CHANNELS 3 Zrotation Xrotation Yrotation
											JOINT LeftHandThumb3
											{
												OFFSET 0.00000 2.15568 0.00000
												CHANNELS 3 Zrotation Xrotation Yrotation
												End site
												{
													OFFSET 0.00000 1.60000 0.00000
												}
											}
										}
									}
									JOINT LeftHandIndex1
									{
										OFFSET 0.00000 12.45500 2.51496
										CHANNELS 3 Zrotation Xrotation Yrotation
										JOINT LeftHandIndex2
										{
											OFFSET 0.00000 4.79039 0.00000
											CHANNELS 3 Zrotation Xrotation Yrotation
											JOINT LeftHandIndex3
											{
												OFFSET 0.00000 2.63472 0.00000
												CHANNELS 3 Zrotation Xrotation Yrotation
												End site
												{
													OFFSET 0.00000 1.91616 0.00000
												}
											}
										}
									}
									JOINT LeftHandMiddle1
									{
										OFFSET 0.00000 12.45500 -0.07984
										CHANNELS 3 Zrotation Xrotation Yrotation
										JOINT LeftHandMiddle2
										{
											OFFSET 0.00000 5.38919 0.00000
											CHANNELS 3 Zrotation Xrotation Yrotation
											JOINT LeftHandMiddle3
											{
												OFFSET 0.00000 3.11376 0.00000
												CHANNELS 3 Zrotation Xrotation Yrotation
												End site
												{
													OFFSET 0.00000 2.03592 0.00000
												}
											}
										}
									}
									JOINT LeftHandRing1
									{
										OFFSET 0.00000 11.07780 -2.67464
										CHANNELS 3 Zrotation Xrotation Yrotation
										JOINT LeftHandRing2
										{
											OFFSET 0.00000 4.91015 0.00000
											CHANNELS 3 Zrotation Xrotation Yrotation
											JOINT LeftHandRing3
											{
												OFFSET 0.00000 3.11376 0.00000
												CHANNELS 3 Zrotation Xrotation Yrotation
												End site
												{
													OFFSET 0.00000 2.03592 0.00000
												}
											}
										}
									}
									JOINT LeftHandPinky1
									{
										OFFSET 0.00000 9.70055 -5.26943
										CHANNELS 3 Zrotation Xrotation Yrotation
										JOINT LeftHandPinky2
										{
											OFFSET 0.00000 3.95207 0.00000
											CHANNELS 3 Zrotation Xrotation Yrotation
											JOINT LeftHandPinky3
											{
												OFFSET 0.00000 2.15568 0.00000
												CHANNELS 3 Zrotation Xrotation Yrotation
												End site
												{
													OFFSET 0.00000 1.91616 0.00000
												}
											}
										}
									}
								}
							}
						}
					}
				}
			}
		}
	}
	JOINT RightUpLeg
	{
		OFFSET -10.06560 0.00000 0.00000
		CHANNELS 3 Zrotation Xrotation Yrotation
		JOINT RightLeg
		{
			OFFSET 0.00000 -42.98740 0.00000
			CHANNELS 3 Zrotation Xrotation Yrotation
			JOINT RightFoot
			{
				OFFSET 0.00000 -44.62500 0.00000
				CHANNELS 3 Zrotation Xrotation Yrotation
				JOINT RightForeFoot
				{
					OFFSET 0.00000 -3.74821 0.00000
					CHANNELS 3 Zrotation Xrotation Yrotation
					JOINT RightToeBase
					{
						OFFSET 0.00000 0.00000 14.67920
						CHANNELS 3 Zrotation Xrotation Yrotation
						End site
						{
							OFFSET 0.00000 0.00000 10.36040
						}
					}
				}
			}
		}
	}
	JOINT LeftUpLeg
	{
		OFFSET 10.06560 0.00000 0.00000
		CHANNELS 3 Zrotation Xrotation Yrotation
		JOINT LeftLeg
		{
			OFFSET 0.00000 -42.98740 0.00000
			CHANNELS 3 Zrotation Xrotation Yrotation
			JOINT LeftFoot
			{
				OFFSET 0.00000 -44.62500 0.00000
				CHANNELS 3 Zrotation Xrotation Yrotation
				JOINT LeftForeFoot
				{
					OFFSET 0.00000 -3.74821 0.00000
					CHANNELS 3 Zrotation Xrotation Yrotation
					JOINT LeftToeBase
					{
						OFFSET 0.00000 0.00000 14.67920
						CHANNELS 3 Zrotation Xrotation Yrotation
						End site
						{
							OFFSET 0.00000 0.00000 10.67280
						}
					}
				}
			}
		}
	}
}
MOTION
Frames: 4
Frame Time: 0.016667
30.0579 90.8722 -61.7759 -10.3112 2.89166 -155.9 -7.82471 11.9992 1.2403 -2.20376 6.21386 0.773803 -1.9925 1.7684 -1.02623 0.837971 0.358027 -1.07515 -0.439463 6.30121 -3.49808 -0.894675 -1.99485 -10.1338 -0.396872 -16.0213 -0.710239 90.1501 -15.8042 0.0408806 16.8573 38.1073 15.784 1.28884e-05 88.4508 -10.9388 -3.8452 -2.27728 1.59153e-15 -21.0893 34.2029 12.2316 1.98785e-15 3.18055e-15 6.36111e-15 1.98785e-15 3.18055e-15 3.18055e-15 -17.8225 -6.36111e-15 -1.59028e-15 3.18055e-15 0.0 -4.77083e-15 -7.94503e-31 9.54166e-15 4.77083e-15 -9.57736 -6.36111e-15 -3.18055e-15 1.59028e-15 0.0 -0.0 0.0 3.18055e-15 -0.0 8.32105 0.0 1.78906e-15 1.19271e-15 -3.18055e-15 -5.96354e-16 1.39149e-15 -6.36111e-15 -5.96354e-16 48.1513 0.0 6.36111e-15 -3.53113e-31 6.36111e-15 3.18055e-15 3.53113e-31 6.36111e-15 -3.18055e-15 -95.1004 -13.2561 -1.17249 -39.1295 26.7871 9.01496 180.0 67.2157 138.489 -15.8118 -1.92829 -8.75148e-15 30.9063 49.4058 -24.445 -1.76556e-31 3.18055e-15 3.18055e-15 -3.18055e-15 3.18055e-15 3.18055e-15 30.3746 0.0 2.38542e-15 -1.59028e-15 -3.18055e-15 -7.95139e-16 -1.59028e-15 -3.18055e-15 -7.95139e-16 16.5657 -1.59028e-15 1.09332e-15 -4.13804e-32 -4.77083e-15 -4.96962e-16 1.37935e-32 -1.59028e-15 4.96962e-16 -13.1555 1.59028e-15 -3.18055e-15 9.54166e-15 -1.59028e-15 -0.0 -3.18055e-15 0.0 -7.95139e-16 -60.376 5.56597e-15 -6.36111e-15 0.0 0.0 -1.59028e-15 -4.41391e-32 -1.59028e-15 -1.59028e-15 -11.1995 6.42436 -10.3162 -6.85603e-16 22.7184 3.44808e-15 3.46861 -23.5709 -4.05169 -7.45443e-17 -1.98785e-16 1.59028e-15 -3.4521e-16 10.5269 1.6175e-15 6.53379 -9.77787 13.1578 -4.2138e-15 23.0321 -3.45605e-15 -11.4936 5.11826 -13.666 0.0 0.0 -0.0 -0.0 -9.45406 -0.0
16.0279 88.9151 -62.5482 -1.51947 6.89699 174.227 -10.5355 14.8657 1.01543 -2.47416 7.04304 1.03315 -2.77806 1.74637 0.919763 -0.0444079 0.141059 -0.661077 1.06029 8.00659 -0.0500618 0.595253 -2.78312 -2.75559 0.855164 -16.9306 -0.319194 86.1607 -17.6425 -1.1653 2.97693 35.7171 32.2449 0.000664039 85.738 -22.5317 -5.9122 -1.69686 -4.41529e-05 -20.377 35.2431 12.0976 3.18055e-15 -3.18055e-15 3.18055e-15 3.18055e-15 1.59028e-14 -6.36111e-15 -24.0386 0.0 -3.57812e-15 -6.36111e-15 5.56597e-15 -6.95746e-15 3.18055e-15 -3.97569e-16 -1.98785e-16 -17.2696 -1.19271e-15 1.98785e-16 3.18055e-15 0.0 -2.38542e-15 -3.18055e-15 3.18055e-15 -2.38542e-15 -0.356259 3.97569e-16 4.77083e-15 -3.18055e-15 -1.19271e-15 7.95139e-16 -6.36111e-15 1.98785e-15 5.96354e-16 37.3764 3.97569e-15 1.44119e-14 3.18055e-15 -7.95139e-16 -7.85199e-15 3.18055e-15 -7.95139e-16 -7.65321e-15 -94.8332 -12.8955 -1.08084 -45.5675 29.3759 11.2196 -0.00102658 85.0102 -40.0601 -15.8577 0.825029 -0.000166635 26.9105 48.6637 -20.8617 -3.53113e-31 -6.36111e-15 -3.18055e-15 -1.59028e-15 -9.54166e-15 7.95139e-15 31.2535 1.59028e-15 -1.36975e-15 3.06042e-33 -7.95139e-16 2.20527e-16 -1.49089e-16 7.95139e-16 -1.37596e-15 17.4453 1.59028e-15 -2.78299e-15 1.59028e-15 0.0 -1.19271e-15 3.18055e-15 -7.95139e-16 -1.59028e-15 -13.9946 0.0 7.95139e-16 3.18055e-15 0.0 3.18055e-15 -0.0 0.0 2.38542e-15 -62.8552 1.49089e-16 2.38542e-15 7.95139e-16 1.73937e-15 7.95139e-16 7.95139e-16 1.73937e-15 1.59028e-15 -14.786 -2.8476 -12.5602 1.33708e-15 30.336 -7.37026e-15 6.06068 -18.5841 -1.76573 5.96354e-16 -3.97569e-16 9.54166e-15 1.07075e-16 10.9848 6.47983e-15 7.53504 -12.8506 4.14378 4.77821e-15 47.8911 -6.37376e-15 -9.69965 -10.6436 -2.79202 2.98177e-16 3.18055e-15 -9.93923e-17 -3.62321e-16 -10.0552 2.01886e-16
12.9446 86.8493 -65.4221 14.6969 9.63593 119.432 -10.7363 13.2042 -0.115525 -2.93397 7.2221 0.9182 -2.58036 1.94774 -7.26175 0.0267711 0.0341907 -2.38675 -6.26285 7.4482 7.76566 0.254862 -5.04186 20.9054 -2.29702 -18.5339 1.58974 90.2693 -18.2308 0.0842424 8.28813 15.3343 43.8698 2.89033e-06 82.1854 -15.2729 -6.77398 -1.2002 1.59063e-15 -21.8609 35.8198 13.2137 -7.95139e-16 6.36111e-15 2.38542e-15 -2.78299e-15 9.54166e-15 -2.38542e-15 -22.8063 0.0 3.18055e-15 -7.95139e-16 -1.59028e-15 -0.0 8.94531e-16 0.0 -0.0 -16.2224 -1.59028e-15 2.38542e-15 2.38542e-15 -1.59028e-15 -0.0 2.38542e-15 -1.59028e-15 -0.0 0.0773397 0.0 -0.0 -2.78299e-15 0.0 1.59028e-15 -0.0 0.0 1.59028e-15 35.4818 -2.98177e-15 -3.18055e-15 -1.49089e-16 -1.98785e-16 -0.0 2.93207e-15 -3.97569e-16 1.59028e-15 -91.4256 -10.0241 -0.248193 -51.88 45.4735 13.8355 5.68911e-07 65.7414 -8.26598 -5.72636 4.70359 -3.1913e-15 23.6922 43.5677 -16.8269 1.54058e-15 3.37934e-15 -3.18055e-15 7.45443e-16 6.70898e-15 3.18055e-15 28.8198 3.18055e-15 9.54166e-15 8.82781e-32 1.59028e-15 -3.18055e-15 -3.18055e-15 0.0 3.18055e-15 15.8573 2.38542e-15 9.54166e-15 -1.59028e-15 -7.95139e-16 -3.18055e-15 3.18055e-15 -3.18055e-15 -0.0 -7.22491 -1.19271e-15 -0.0 4.41391e-32 -7.95139e-16 3.18055e-15 -1.98626e-31 3.57812e-15 3.18055e-15 -47.582 3.18055e-15 -9.54166e-15 -0.0 0.0 3.18055e-15 1.05934e-30 -6.36111e-15 9.54166e-15 -7.57592 -9.40723 1.71587 1.36513e-15 34.1847 -3.84482e-15 8.23881 -11.6815 10.8882 -3.97569e-16 -3.97569e-16 -6.36111e-15 -1.19753e-15 7.2105 3.20591e-15 7.22596 8.69284 4.56592 -1.55996e-14 54.5527 5.48415e-15 -11.1979 -10.3689 -11.6688 6.36111e-15 6.36111e-15 -6.36111e-15 4.67814e-15 -25.2136 3.51549e-15
16.4867 89.1516 -65.3541 10.4482 9.67343 108.35 -9.24603 12.4977 -1.03699 -2.51351 7.12821 0.667218 -0.886618 1.34765 -11.4473 3.66584 0.708594 -3.02157 -9.85508 10.2578 8.50463 -1.46595 -6.18251 26.3333 -5.20243 -18.7039 2.16556 96.5877 -25.1957 2.81461 42.1308 -12.4356 33.5969 -7.62843e-08 30.0636 5.36914 -4.08173 -4.46356 3.98779e-16 -23.0144 30.8696 12.295 -3.18055e-15 1.59028e-15 -2.68359e-15 -3.18055e-15 1.59028e-15 -3.27995e-15 -23.9947 -3.18055e-15 1.19271e-14 3.18055e-15 -6.36111e-15 8.74653e-15 -8.82781e-32 3.18055e-15 1.59028e-15 -17.2633 -3.18055e-15 1.19271e-14 7.95139e-16 3.18055e-15 -7.95139e-16 8.74653e-15 0.0 7.95139e-15 -2.84766 3.18055e-15 5.56597e-15 3.18055e-15 0.0 8.74653e-15 4.77083e-15 0.0 7.55382e-15 29.6252 -6.36111e-15 -0.0 -3.18055e-15 6.36111e-15 6.36111e-15 3.18055e-15 0.0 3.18055e-15 -86.6469 -14.9596 0.866477 -13.4667 59.997 -46.7634 1.53942e-06 65.5135 -12.6627 1.05721 4.13673 6.37772e-15 24.451 43.1872 -17.2854 0.0 0.0 -0.0 8.82781e-32 -1.59028e-15 3.18055e-15 33.1506 -9.54166e-15 -1.27222e-14 3.53113e-31 -6.36111e-15 3.18055e-15 -3.18055e-15 0.0 -9.54166e-15 21.4031 -3.18055e-15 -6.36111e-15 3.18055e-15 3.18055e-15 -3.18055e-15 3.18055e-15 -4.77083e-15 -1.27222e-14 -1.28517 4.02539e-15 -0.0 -1.19271e-15 8.94531e-16 -9.54166e-15 1.09332e-15 -5.01931e-15 -6.36111e-15 -41.6806 -3.18055e-15 1.27222e-14 3.18055e-15 0.0 -3.18055e-15 1.76556e-31 -3.18055e-15 3.18055e-15 -8.24324 -11.0245 6.47777 -1.57363e-16 28.7878 3.62907e-15 6.27196 -9.87574 5.99076 -7.95139e-16 0.0 -0.0 7.95139e-16 7.65191 -0.0 1.62241 16.2715 10.764 -4.88271e-15 38.1381 4.04381e-15 -9.17121 -5.20349 -13.3939 -4.41391e-32 7.95139e-16 3.18055e-15 -0.0 -25.1023 -0.0
